<?xml version="1.0" encoding="UTF-8"?>
<svg xmlns="http://www.w3.org/2000/svg" xmlns:xlink="http://www.w3.org/1999/xlink" version="1.1" id="Layer_1" x="0px" y="0px" viewBox="0 0 432 252" style="enable-background:new 0 0 432 252;" xml:space="preserve">
<style type="text/css">
	.st0{fill:#02B8CF;}
	.st1{fill:#FFFFFF;}
</style>
<g>
	<path d="M320.66,143.56c9.14,0,15.55-4.82,15.55-12.89v-0.12c0-7.15-4.74-10.43-13.93-12.64c-8.4-1.95-10.39-3.45-10.39-6.78v-0.12   c0-2.83,2.62-5.11,7.11-5.11c3.99,0,7.9,1.54,11.81,4.45l4.12-5.74c-4.41-3.49-9.44-5.4-15.8-5.4c-8.65,0-14.88,5.11-14.88,12.51   v0.12c0,7.94,5.24,10.64,14.51,12.89c8.06,1.83,9.81,3.53,9.81,6.61v0.12c0,3.2-2.99,5.4-7.73,5.4c-5.36,0-9.56-2.04-13.76-5.61   l-4.61,5.4C307.69,141.27,314,143.56,320.66,143.56"></path>
	<rect x="283.08" y="99.78" width="7.65" height="43.15"></rect>
	<path d="M184.77,125.81l7.48-17.25l7.52,17.25H184.77z M169.68,142.93h7.81l4.49-10.43h20.58l4.41,10.43h8.06l-19.16-43.44h-7.11   L169.68,142.93z"></path>
	<path d="M133.02,121.19v-14.47h11.14c5.65,0,9.02,2.54,9.02,7.15V114c0,4.36-3.49,7.19-8.94,7.19H133.02z M125.37,142.93h7.65   v-15.05h9.56l10.68,15.05h9.06L150.6,126.6c6.03-1.75,10.31-5.99,10.31-13.05v-0.12c0-3.74-1.29-6.98-3.62-9.31   c-2.79-2.7-7.11-4.32-12.55-4.32h-19.41v43.15H125.37z"></path>
	<path d="M88.42,122.23v-15.55h8.9c5.74,0,9.39,2.66,9.39,7.69v0.12c0,4.49-3.62,7.69-9.39,7.69h-8.9V122.23z M80.77,142.93h7.65   v-13.88h8.65c9.56,0,17.42-5.07,17.42-14.72v-0.12c0-8.69-6.36-14.42-16.54-14.42H80.77V142.93z"></path>
	<polygon class="st0" points="218.41,150.07 243.97,128.6 198.6,82.69 235.34,128.27  "></polygon>
	<polygon class="st0" points="275.33,105.87 249.79,127.35 295.19,173.21 258.42,127.65  "></polygon>
	<polygon class="st0" points="270.48,155.1 247.65,130.82 203.5,177.88 247.73,139.37  "></polygon>
	<polygon class="st0" points="290.32,78.12 246.04,116.57 223.31,100.79 246.12,125.13  "></polygon>
</g>
</svg>
